<?xml version="1.0" encoding="UTF-8"?> <svg id="a" xmlns="http://www.w3.org/2000/svg" viewBox="0 0 512 512"><defs><style>.c{fill:#000}@media (prefers-color-scheme:dark){.c{fill:#fff}}</style></defs><path class="c" d="M53.45623,394.70075c-16.99468-8.08341-30.15333-19.42531-39.47179-34.03715-9.32573-14.6056-13.98444-31.55042-13.98444-50.84278v-26.80446c0-1.41579.52144-2.61864,1.57887-3.61582,1.05016-.99095,2.32572-1.48954,3.835-1.48954h52.77898c1.50097,0,2.77653.49859,3.83396,1.48954,1.05016.99718,1.57887,2.20003,1.57887,3.61582v26.80446c0,13.61465,4.43331,24.61066,13.30719,32.97349,8.86765,8.3701,20.97718,12.55099,36.31405,12.55099,14.73129,0,26.84082-4.18089,36.31405-12.55099,9.47323-8.36283,14.20984-19.35883,14.20984-32.97349V110.70331c0-1.41579.52144-2.61864,1.57887-3.61582,1.05016-.99095,2.32572-1.48954,3.83396-1.48954h52.32817c1.50097,0,2.77757.49859,3.83396,1.48954,1.05016.99718,1.57991,2.20003,1.57991,3.61582v199.11752c0,19.29236-4.81452,36.23718-14.43629,50.84278-9.628,14.61183-23.00582,25.95374-40.148,34.03715-17.14218,8.08445-36.84276,12.12615-59.09446,12.12615-22.85832,0-42.7843-4.0417-59.77068-12.12615Z"/><path class="c" d="M464.63385,116.66043c15.0346,7.65857,26.68501,18.50708,34.96058,32.54761,8.26726,14.04053,12.40557,30.1419,12.40557,48.29062,0,17.86929-4.28581,33.61127-12.85742,47.22592-8.57057,13.61569-20.6022,24.18582-36.0876,31.69792-15.49268,7.51834-33.31107,11.27439-53.45623,11.27439h-64.05648c-1.50824,0-2.25509.71153-2.25509,2.12732v108.49341c0,1.42202-.52871,2.62591-1.57887,3.61582-1.05743.99718-2.33299,1.48954-3.835,1.48954h-52.77898c-1.50824,0-2.7838-.49236-3.83396-1.48954-1.05743-.98991-1.57887-2.1938-1.57887-3.61582V110.27847c0-1.41579.52144-2.61968,1.57887-3.61686,1.05016-.98991,2.32572-1.4885,3.83396-1.4885h127.21134c19.84808,0,37.2863,3.82876,52.32817,11.48733ZM436.21417,228.34482c8.4158-7.5121,12.63097-17.3707,12.63097-29.56956,0-12.47828-4.21517-22.54982-12.63097-30.20838-8.42307-7.65857-19.55204-11.48733-33.38171-11.48733h-57.29019c-1.50824,0-2.25509.71153-2.25509,2.12732v78.28502c0,1.42306.74685,2.12732,2.25509,2.12732h57.29019c13.82967,0,24.95864-3.75605,33.38171-11.27439Z"/></svg>