<?xml version="1.0" encoding="UTF-8"?><svg id="a" xmlns="http://www.w3.org/2000/svg" viewBox="0 0 48 48"><defs><style>.c{fill:#fff;}</style></defs><path id="b" class="c" d="M46.95598,10.4896l-3.07429-5.3249-.0001.00016c-.00182-.00317-.00349-.0064-.00532-.00957-1.02739-1.77945-2.86748-2.84182-4.92222-2.84182H10.62031c-2.78394,0-5.37808,1.4977-6.77004,3.90868L.77594,11.54704h.00021c-.00184.00318-.00381.00624-.00565.00943-1.02735,1.77948-1.02735,3.90418.00002,5.68361l14.16687,24.53781c1.392,2.41093,3.98612,3.90863,6.77004,3.90863h6.14865l-.0001-.00018c.00367,0,.0073.00018.01097.00018,2.05474,0,3.8948-1.06234,4.9222-2.8418l14.16683-24.53776c1.39203-2.41098,1.39203-5.4064,0-7.81736ZM6.30322,7.63836c.88762-1.53742,2.54183-2.49248,4.31709-2.49248h28.33375c1.03079,0,1.95388.53296,2.46923,1.42564.51539.89266.51539,1.95854,0,2.85122l-13.55633,23.48026-2.0604-3.56871,6.57374-11.38609h0l2.87803-4.98492c.512-.88679.51205-1.94565.00005-2.83244-.08-.13856-.16989-.2684-.26853-.38885-.53265-.65046-1.32046-1.02737-2.18442-1.02737H5.6927c-.00048,0-.00094.00002-.00142.00002h-.00945l.62139-1.07629h0ZM24.17126,26.50187l-4.93847-8.55367h9.87694l-4.93847,8.55367ZM21.70744,42.85412c-1.77523,0-3.42945-.95506-4.31709-2.49248L3.22348,15.82386c-.51539-.89264-.51539-1.95851,0-2.85118.51537-.89268,1.43846-1.42562,2.46923-1.42562h27.11269l-2.06038,3.5687H11.84135c-1.02398,0-1.94095.52943-2.45295,1.41622-.51198.88679-.51198,1.94565,0,2.83242l13.56179,23.48973h-1.24276ZM44.50304,16.89074l-14.16685,24.53778c-.51539.89264-1.43846,1.4256-2.46923,1.4256s-1.95383-.53296-2.46923-1.42564l-13.55634-23.48028h4.12079l6.57378,11.38609h0s2.87805,4.98491,2.87805,4.98491c.51198.88681,1.42897,1.41624,2.45295,1.41624s1.94097-.52943,2.45295-1.4162l13.55638-23.4803s.00005-.0001.00008-.00015l.00533-.00923.62139,1.07626c.88764,1.5374.88764,3.4475-.00005,4.98492Z"/></svg>