<?xml version="1.0" encoding="UTF-8"?>
<svg id="Layer_1" data-name="Layer 1" xmlns="http://www.w3.org/2000/svg" version="1.1" viewBox="0 0 48 48">
    <defs>
        <clipPath id="clippath">
            <rect width="48" height="48" fill="none" stroke-width="0"/>
        </clipPath>
    </defs>
    <g clip-path="url(#clippath)">
        <path d="M24.0198994,0C10.7375002,0,0,10.8167,0,24.1982994c0,10.696701,6.87988,19.7512016,16.4241009,22.9559021,1.1932983.2408981,1.6303997-.5207024,1.6303997-1.1613007,0-.5610008-.0394001-2.483902-.0394001-4.4874001-6.6817007,1.4425011-8.0731201-2.8846016-8.0731201-2.8846016-1.0738001-2.8045006-2.6648302-3.5252991-2.6648302-3.5252991-2.1869302-1.482399.1592999-1.482399.1592999-1.482399,2.4258804.1602974,3.6988497,2.4838982,3.6988497,2.4838982,2.1471004,3.6856003,5.6069012,2.6441994,6.9988003,2.0031013.1987-1.5625.8353996-2.6441994,1.5114002-3.2449989-5.3291998-.5610008-10.9361305-2.6442032-10.9361305-11.9391022,0-2.6441994.9538403-4.8074989,2.46523-6.4899998-.2384996-.6007996-1.0738001-3.0851994.2389002-6.4103994,0,0,2.0282001-.6410999,6.6011009,2.4839001,1.9578991-.5297003,3.9769993-.7991009,6.0052986-.8014002,2.028101,0,4.0955009.2807999,6.0046997.8014002,4.5734997-3.125,6.6016026-2.4839001,6.6016026-2.4839001,1.3126984,3.3252001.4768982,5.8095999.2383995,6.4103994,1.5511971,1.6825008,2.4656982,3.8458004,2.4656982,6.4899998,0,9.294899-5.6068993,11.3377991-10.9758987,11.9391022.8752003.761097,1.6303997,2.2030983,1.6303997,4.4868965,0,3.2450027-.0394001,5.8494034-.0394001,6.6503029,0,.641098.4375992,1.4026985,1.6303997,1.1623001,9.544199-3.2056007,16.4241009-12.2597008,16.4241009-22.9564018.039299-13.3815994-10.7374992-24.1982994-23.9800014-24.1982994Z"
                fill="black" fill-rule="evenodd" stroke-width="0"/>
    </g>
</svg>
