<?xml version="1.0" encoding="UTF-8"?>
<svg id="a" xmlns="http://www.w3.org/2000/svg" viewBox="0 0 512 512">
    <path id="b"
            d="M8.36326,124.20743c-11.15101,19.31434-11.15101,42.3761,0,61.68922l155.41929,269.19537c10.98543,19.02457,31.45639,30.84158,53.42486,30.84158l77.71025.00243c22.29963,0,42.27142-11.53211,53.42367-30.84401l155.42049-269.19537c10.98424-19.02579,10.98424-42.66221,0-61.68922l-38.85513-67.29824c-11.15225-19.31434-31.12404-30.84523-53.4261-30.84523H100.64327c-21.96969,0-42.44187,11.81944-53.42367,30.84523L8.36326,124.20743ZM207.49431,194.30954h97.1368l-48.56823,84.12217-48.56856-84.12217ZM76.36034,73.73376c4.99173-8.64787,14.29704-14.02067,24.28293-14.02067h310.83732c10.13686,0,19.21694,5.24131,24.28415,14.02067,5.06706,8.77488,5.06941,19.25118.00752,28.02779l-140.8546,243.96779-19.42748-33.64895,98.75454-171.04718c5.74414-9.95058,5.74414-21.8309,0-31.78026-5.74414-9.95058-16.03438-15.89074-27.52266-15.89074H65.0279l11.33244-19.62845ZM239.87064,452.28448h-22.66323c-9.98589,0-19.2912-5.37159-24.28415-14.01823L37.50521,169.07209c-5.06965-8.77814-5.06965-19.26074-.00122-28.0401,5.06965-8.77935,14.14729-14.02067,24.28537-14.02067h281.6966l-19.42878,33.6491-197.51058.00007c-11.48952.00072-21.77817,5.94087-27.52251,15.89013-5.74539,9.94986-5.7446,21.83155-.00046,31.7807l140.847,243.95316ZM267.39475,365.36031c5.74539,9.94986,16.03404,15.89002,27.52252,15.89013,11.48953.00072,21.77898-5.94081,27.5231-15.88996l140.84727-243.95655,11.33222,19.62806c4.99416,8.64787,4.99416,19.39345,0,28.0401l-155.42049,269.19415c-5.06721,8.77814-14.14485,14.02067-24.28171,14.02067-10.07968,0-19.10836-5.18266-24.19497-13.86779l-140.93869-244.10959h38.85511l98.75564,171.05077Z"/>
</svg>
