<?xml version="1.0" encoding="UTF-8"?>
<svg id="Layer_1" data-name="Layer 1" xmlns="http://www.w3.org/2000/svg" version="1.1" viewBox="0 0 48 48">
    <defs>
        <clipPath id="clippath">
            <rect width="48" height="48" fill="none" stroke-width="0"/>
        </clipPath>
    </defs>
    <g clip-path="url(#clippath)">
        <path d="M44.4468994,0H3.54375C1.58437,0,0,1.54688,0,3.4593799v41.0718205c0,1.9124985,1.58437,3.4687996,3.54375,3.4687996h40.9031494c1.959301,0,3.5531006-1.5561981,3.5531006-3.4594002V3.4593799c0-1.9124999-1.5937996-3.4593799-3.5531006-3.4593799ZM14.2405996,40.9030991h-7.1249695v-22.9124985h7.1249695v22.9124985ZM10.6780996,14.8688002c-2.2874794,0-4.1343498-1.8469-4.1343498-4.1251001,0-2.27808,1.8468704-4.1249499,4.1343498-4.1249499,2.2782001,0,4.125,1.8468699,4.125,4.1249499,0,2.2687998-1.8467999,4.1251001-4.125,4.1251001ZM40.9030991,40.9030991h-7.1156006v-11.1374989c0-2.653101-.0468979-6.0750008-3.7030983-6.0750008-3.7031994,0-4.2656994,2.8969002-4.2656994,5.8875008v11.3249989h-7.1062012v-22.9124985h6.8250008v3.1313h.0937004c.9468994-1.8000011,3.2718983-3.7031002,6.7312984-3.7031002,7.2094002,0,8.5405998,4.7437,8.5405998,10.9125004v12.5717983Z"
                fill="black" stroke-width="0"/>
    </g>
</svg>
